# xmcd
#
# Track frame offsets:
#	150
#	14680
#	28934
#	50479
#	71616
#	88080
#	105041
#	124704
#	143539
#	158432
#	177478
#	195303
#
# Disc length: 2830 seconds
#
# Revision: 0
# Processed by: cddbd v1.5.2PL0 Copyright (c) Steve Scherf et al.
# Submitted via: EasyCDDAExtractor 15.3.0.1
#
DISCID=950b0c0c
DTITLE=Carter and Carter - Dance Away the Night
DYEAR=2000
DGENRE=Country
TTITLE0=Change his Mind
TTITLE1=You Were There
TTITLE2=Dance Away the Night
TTITLE3=A little Place Called Love
TTITLE4=Dance With the Devil
TTITLE5=Stone in the Rain
TTITLE6=Show Me Heaven (with Darren Coggan)
TTITLE7=A Moment in Time
TTITLE8=A Little Out of Control
TTITLE9=Bordertown
TTITLE10=Fly Away With Me
TTITLE11=More Than Just a Feeling
EXTD=
EXTT0=
EXTT1=
EXTT2=
EXTT3=
EXTT4=
EXTT5=
EXTT6=
EXTT7=
EXTT8=
EXTT9=
EXTT10=
EXTT11=
PLAYORDER=
